<svg width="1440" height="62" viewBox="0 0 1440 62" fill="none" xmlns="http://www.w3.org/2000/svg">
<path d="M81.1127 14.0161L104.5 -0.499987L81.1127 -15.0161L57.7256 -0.499987L81.1127 14.0161Z" fill="#F0F0F0"/>
<path d="M338.371 14.0161L361.758 -0.499987L338.371 -15.0161L314.984 -0.499987L338.371 14.0161Z" fill="#F0F0F0"/>
<path d="M595.629 14.0161L619.016 -0.499987L595.629 -15.0161L572.242 -0.499987L595.629 14.0161Z" fill="#F0F0F0"/>
<path d="M426.677 39.016L463.774 61.9998L500.871 39.016L463.774 16.0321L426.677 39.016Z" fill="#F0F0F0"/>
<path d="M171 39.016L208.097 61.9998L245.194 39.016L208.097 16.0321L171 39.016Z" fill="#F0F0F0"/>
<path d="M-176.952 43.4516L-147.113 62L-48.3226 1.11291L50.4677 62L80.3065 43.4516L110.145 62L208.935 1.11291L307.726 62L337.565 43.4516L367.403 62L466.194 1.11291L564.984 62L594.823 43.4516L624.661 62L723.452 1.11291V-2.11291L624.661 -63L594.823 -44.4516L564.984 -63L466.194 -2.11291L367.403 -63L337.565 -44.4516L307.726 -63L208.935 -2.11291L110.145 -63L80.3065 -44.4516L50.4677 -63L-48.3226 -2.11291L-147.113 -63L-176.952 -44.4516L-206.79 -63L-308 -0.500004L-206.79 62L-176.952 43.4516ZM624.661 -48.8871L702.887 -0.500004L624.661 47.8871L606.113 36.5968L665.79 -0.500004L606.113 -37.5968L624.661 -48.8871ZM643.21 -0.500004L594.823 29.3387L546.435 -0.500004L594.823 -30.3387L643.21 -0.500004ZM564.984 -48.8871L583.532 -37.5968L523.855 -0.500004L583.532 36.5968L564.984 47.8871L486.758 -0.500004L564.984 -48.8871ZM367.403 -48.8871L445.629 -0.500004L367.403 47.8871L349.258 36.5968L408.935 -0.500004L349.258 -37.5968L367.403 -48.8871ZM385.952 -0.500004L337.565 29.3387L289.177 -0.500004L337.565 -30.3387L385.952 -0.500004ZM307.726 -48.8871L326.274 -37.5968L266.597 -0.500004L326.274 36.5968L307.726 47.8871L229.5 -0.500004L307.726 -48.8871ZM110.145 -48.8871L188.371 -0.500004L110.145 47.8871L92 36.5968L151.677 -0.500004L92 -37.5968L110.145 -48.8871ZM128.694 -0.500004L80.3065 29.3387L31.9194 -0.500004L80.3065 -30.3387L128.694 -0.500004ZM50.4677 -48.8871L69.0161 -37.5968L9.33868 -0.500004L69.0161 36.5968L50.4677 47.8871L-27.7581 -0.500004L50.4677 -48.8871ZM-147.113 -48.8871L-68.8871 -0.500004L-147.113 47.8871L-165.661 36.5968L-105.984 -0.500004L-165.661 -37.5968L-147.113 -48.8871ZM-176.952 -30.3387L-128.565 -0.500004L-176.952 29.3387L-225.339 -0.500004L-176.952 -30.3387ZM-206.79 -48.8871L-188.242 -37.5968L-247.919 -0.500004L-188.242 36.5968L-206.79 47.8871L-285.016 -0.500004L-206.79 -48.8871Z" fill="#F0F0F0"/>
<path d="M855.306 14.0161L878.693 -0.499987L855.306 -15.0161L831.919 -0.499987L855.306 14.0161Z" fill="#F0F0F0"/>
<path d="M1112.56 14.0161L1135.95 -0.499987L1112.56 -15.0161L1089.18 -0.499987L1112.56 14.0161Z" fill="#F0F0F0"/>
<path d="M943.613 39.016L980.709 61.9998L1017.81 39.016L980.709 16.0321L943.613 39.016Z" fill="#F0F0F0"/>
<path d="M1202.61 39.016L1239.71 61.9998L1276.81 39.016L1239.71 16.0321L1202.61 39.016Z" fill="#F0F0F0"/>
<path d="M686.355 39.016L723.452 61.9998L760.549 39.016L723.452 16.0321L686.355 39.016Z" fill="#F0F0F0"/>
<path d="M1369.82 14.0161L1393.21 -0.499987L1369.82 -15.0161L1346.44 -0.499987L1369.82 14.0161Z" fill="#F0F0F0"/>
<path d="M854.5 43.4516L884.339 62L983.129 1.11291L1081.92 62L1111.76 43.4516L1141.6 62L1240.39 1.11291L1339.18 62L1369.02 43.4516L1398.85 62L1497.65 1.11291L1596.44 62L1626.27 43.4516L1656.11 62L1754.9 1.11291V-2.11291L1656.11 -63L1626.27 -44.4516L1596.44 -63L1497.65 -2.11291L1398.85 -63L1369.02 -44.4516L1339.18 -63L1240.39 -2.11291L1141.6 -63L1111.76 -44.4516L1081.92 -63L983.129 -2.11291L884.339 -63L854.5 -44.4516L824.661 -63L723.452 -0.500004L824.661 62L854.5 43.4516ZM1656.11 -48.8871L1734.34 -0.500004L1656.11 47.8871L1637.56 36.5968L1697.24 -0.500004L1637.56 -37.5968L1656.11 -48.8871ZM1674.66 -0.500004L1626.27 29.3387L1577.89 -0.500004L1626.27 -30.3387L1674.66 -0.500004ZM1596.44 -48.8871L1614.98 -37.5968L1555.31 -0.500004L1614.98 36.5968L1596.44 47.8871L1518.21 -0.500004L1596.44 -48.8871ZM1398.85 -48.8871L1477.08 -0.500004L1398.85 47.8871L1380.31 36.5968L1439.98 -0.500004L1380.31 -37.5968L1398.85 -48.8871ZM1417.4 -0.500004L1369.02 29.3387L1320.63 -0.500004L1369.02 -30.3387L1417.4 -0.500004ZM1339.18 -48.8871L1357.73 -37.5968L1298.05 -0.500004L1357.73 36.5968L1339.18 47.8871L1260.95 -0.500004L1339.18 -48.8871ZM1141.6 -48.8871L1219.82 -0.500004L1141.6 47.8871L1123.45 36.5968L1183.13 -0.500004L1123.45 -37.5968L1141.6 -48.8871ZM1160.15 -0.500004L1111.76 29.3387L1063.37 -0.500004L1111.76 -30.3387L1160.15 -0.500004ZM1081.92 -48.8871L1100.47 -37.5968L1040.79 -0.500004L1100.47 36.5968L1081.92 47.8871L1003.69 -0.500004L1081.92 -48.8871ZM884.339 -48.8871L962.565 -0.500004L884.339 47.8871L865.79 36.5968L925.468 -0.500004L865.79 -37.5968L884.339 -48.8871ZM854.5 -30.3387L902.887 -0.500004L854.5 29.3387L806.113 -0.500004L854.5 -30.3387ZM824.661 -48.8871L843.21 -37.5968L783.532 -0.500004L843.21 36.5968L824.661 47.8871L746.436 -0.500004L824.661 -48.8871Z" fill="#F0F0F0"/>
</svg>
