<svg width="1440" height="62" viewBox="0 0 1440 62" fill="none" xmlns="http://www.w3.org/2000/svg">
<path d="M81.1127 47.9839L104.5 62.5L81.1127 77.0161L57.7256 62.5L81.1127 47.9839Z" fill="#F0F0F0"/>
<path d="M338.371 47.9839L361.758 62.5L338.371 77.0161L314.984 62.5L338.371 47.9839Z" fill="#F0F0F0"/>
<path d="M595.629 47.9839L619.016 62.5L595.629 77.0161L572.242 62.5L595.629 47.9839Z" fill="#F0F0F0"/>
<path d="M426.677 22.984L463.774 0.000160217L500.871 22.984L463.774 45.9679L426.677 22.984Z" fill="#F0F0F0"/>
<path d="M171 22.984L208.097 0.000160217L245.194 22.984L208.097 45.9679L171 22.984Z" fill="#F0F0F0"/>
<path d="M-176.952 18.5484L-147.113 0L-48.3226 60.8871L50.4677 0L80.3065 18.5484L110.145 0L208.935 60.8871L307.726 0L337.565 18.5484L367.403 0L466.194 60.8871L564.984 0L594.823 18.5484L624.661 0L723.452 60.8871V64.1129L624.661 125L594.823 106.452L564.984 125L466.194 64.1129L367.403 125L337.565 106.452L307.726 125L208.935 64.1129L110.145 125L80.3065 106.452L50.4677 125L-48.3226 64.1129L-147.113 125L-176.952 106.452L-206.79 125L-308 62.5L-206.79 0L-176.952 18.5484ZM624.661 110.887L702.887 62.5L624.661 14.1129L606.113 25.4032L665.79 62.5L606.113 99.5968L624.661 110.887ZM643.21 62.5L594.823 32.6613L546.435 62.5L594.823 92.3387L643.21 62.5ZM564.984 110.887L583.532 99.5968L523.855 62.5L583.532 25.4032L564.984 14.1129L486.758 62.5L564.984 110.887ZM367.403 110.887L445.629 62.5L367.403 14.1129L349.258 25.4032L408.935 62.5L349.258 99.5968L367.403 110.887ZM385.952 62.5L337.565 32.6613L289.177 62.5L337.565 92.3387L385.952 62.5ZM307.726 110.887L326.274 99.5968L266.597 62.5L326.274 25.4032L307.726 14.1129L229.5 62.5L307.726 110.887ZM110.145 110.887L188.371 62.5L110.145 14.1129L92 25.4032L151.677 62.5L92 99.5968L110.145 110.887ZM128.694 62.5L80.3065 32.6613L31.9194 62.5L80.3065 92.3387L128.694 62.5ZM50.4677 110.887L69.0161 99.5968L9.33868 62.5L69.0161 25.4032L50.4677 14.1129L-27.7581 62.5L50.4677 110.887ZM-147.113 110.887L-68.8871 62.5L-147.113 14.1129L-165.661 25.4032L-105.984 62.5L-165.661 99.5968L-147.113 110.887ZM-176.952 92.3387L-128.565 62.5L-176.952 32.6613L-225.339 62.5L-176.952 92.3387ZM-206.79 110.887L-188.242 99.5968L-247.919 62.5L-188.242 25.4032L-206.79 14.1129L-285.016 62.5L-206.79 110.887Z" fill="#F0F0F0"/>
<path d="M855.306 47.9839L878.693 62.5L855.306 77.0161L831.919 62.5L855.306 47.9839Z" fill="#F0F0F0"/>
<path d="M1112.56 47.9839L1135.95 62.5L1112.56 77.0161L1089.18 62.5L1112.56 47.9839Z" fill="#F0F0F0"/>
<path d="M943.613 22.984L980.709 0.000160217L1017.81 22.984L980.709 45.9679L943.613 22.984Z" fill="#F0F0F0"/>
<path d="M1202.61 22.984L1239.71 0.000160217L1276.81 22.984L1239.71 45.9679L1202.61 22.984Z" fill="#F0F0F0"/>
<path d="M686.355 22.984L723.452 0.000160217L760.549 22.984L723.452 45.9679L686.355 22.984Z" fill="#F0F0F0"/>
<path d="M1369.82 47.9839L1393.21 62.5L1369.82 77.0161L1346.44 62.5L1369.82 47.9839Z" fill="#F0F0F0"/>
<path d="M854.5 18.5484L884.339 0L983.129 60.8871L1081.92 0L1111.76 18.5484L1141.6 0L1240.39 60.8871L1339.18 0L1369.02 18.5484L1398.85 0L1497.65 60.8871L1596.44 0L1626.27 18.5484L1656.11 0L1754.9 60.8871V64.1129L1656.11 125L1626.27 106.452L1596.44 125L1497.65 64.1129L1398.85 125L1369.02 106.452L1339.18 125L1240.39 64.1129L1141.6 125L1111.76 106.452L1081.92 125L983.129 64.1129L884.339 125L854.5 106.452L824.661 125L723.452 62.5L824.661 0L854.5 18.5484ZM1656.11 110.887L1734.34 62.5L1656.11 14.1129L1637.56 25.4032L1697.24 62.5L1637.56 99.5968L1656.11 110.887ZM1674.66 62.5L1626.27 32.6613L1577.89 62.5L1626.27 92.3387L1674.66 62.5ZM1596.44 110.887L1614.98 99.5968L1555.31 62.5L1614.98 25.4032L1596.44 14.1129L1518.21 62.5L1596.44 110.887ZM1398.85 110.887L1477.08 62.5L1398.85 14.1129L1380.31 25.4032L1439.98 62.5L1380.31 99.5968L1398.85 110.887ZM1417.4 62.5L1369.02 32.6613L1320.63 62.5L1369.02 92.3387L1417.4 62.5ZM1339.18 110.887L1357.73 99.5968L1298.05 62.5L1357.73 25.4032L1339.18 14.1129L1260.95 62.5L1339.18 110.887ZM1141.6 110.887L1219.82 62.5L1141.6 14.1129L1123.45 25.4032L1183.13 62.5L1123.45 99.5968L1141.6 110.887ZM1160.15 62.5L1111.76 32.6613L1063.37 62.5L1111.76 92.3387L1160.15 62.5ZM1081.92 110.887L1100.47 99.5968L1040.79 62.5L1100.47 25.4032L1081.92 14.1129L1003.69 62.5L1081.92 110.887ZM884.339 110.887L962.565 62.5L884.339 14.1129L865.79 25.4032L925.468 62.5L865.79 99.5968L884.339 110.887ZM854.5 92.3387L902.887 62.5L854.5 32.6613L806.113 62.5L854.5 92.3387ZM824.661 110.887L843.21 99.5968L783.532 62.5L843.21 25.4032L824.661 14.1129L746.436 62.5L824.661 110.887Z" fill="#F0F0F0"/>
</svg>
